<?xml version="1.0" standalone="no"?>
<!DOCTYPE svg PUBLIC "-//W3C//DTD SVG 20010904//EN"
 "http://www.w3.org/TR/2001/REC-SVG-20010904/DTD/svg10.dtd">
<svg version="1.0" xmlns="http://www.w3.org/2000/svg"
 width="1432.000000pt" height="584.000000pt" viewBox="0 0 1432.000000 584.000000"
 preserveAspectRatio="xMidYMid meet">
<metadata>
Created by potrace 1.16, written by Peter Selinger 2001-2019
</metadata>
<g transform="translate(0.000000,584.000000) scale(0.100000,-0.100000)"
fill="#000000" stroke="none">
<path d="M0 3180 l0 -2660 80 0 c73 0 80 2 80 20 0 19 7 20 100 20 93 0 100 1
100 20 0 19 7 20 100 20 93 0 100 1 100 20 0 19 7 20 100 20 93 0 100 1 100
20 0 19 7 20 120 20 113 0 120 1 120 20 0 19 7 20 100 20 93 0 100 1 100 20 0
19 7 20 140 20 133 0 140 1 140 20 0 19 7 20 140 20 133 0 140 1 140 20 0 19
7 20 200 20 193 0 200 1 200 20 0 19 7 20 220 20 213 0 220 1 220 20 0 20 7
20 900 20 893 0 900 0 900 -20 0 -19 7 -20 220 -20 213 0 220 -1 220 -20 0
-19 7 -20 220 -20 213 0 220 -1 220 -20 0 -19 7 -20 140 -20 133 0 140 -1 140
-20 0 -19 7 -20 160 -20 153 0 160 -1 160 -20 0 -19 7 -20 120 -20 113 0 120
-1 120 -20 0 -19 7 -20 120 -20 113 0 120 -1 120 -20 0 -19 7 -20 120 -20 113
0 120 -1 120 -20 0 -19 7 -20 120 -20 113 0 120 -1 120 -20 0 -19 7 -20 120
-20 113 0 120 -1 120 -20 0 -19 7 -20 100 -20 93 0 100 -1 100 -20 0 -19 7
-20 120 -20 113 0 120 -1 120 -20 0 -18 7 -20 80 -20 73 0 80 -2 80 -20 0 -19
7 -20 120 -20 113 0 120 -1 120 -20 0 -19 7 -20 120 -20 113 0 120 -1 120 -20
0 -19 7 -20 100 -20 93 0 100 -1 100 -20 0 -19 7 -20 140 -20 133 0 140 -1
140 -20 0 -19 7 -20 120 -20 113 0 120 -1 120 -20 0 -19 7 -20 140 -20 133 0
140 -1 140 -20 0 -19 7 -20 140 -20 133 0 140 -1 140 -20 0 -19 7 -20 200 -20
193 0 200 -1 200 -20 0 -19 7 -20 240 -20 233 0 240 -1 240 -20 0 -20 7 -20
740 -20 733 0 740 0 740 20 0 19 7 20 220 20 213 0 220 1 220 20 0 19 7 20
180 20 173 0 180 1 180 20 0 19 7 20 120 20 113 0 120 1 120 20 0 19 7 20 140
20 133 0 140 1 140 20 0 19 7 20 100 20 93 0 100 1 100 20 0 19 7 20 100 20
93 0 100 1 100 20 0 19 7 20 100 20 93 0 100 1 100 20 0 18 7 20 80 20 73 0
80 2 80 20 0 18 7 20 80 20 73 0 80 2 80 20 0 18 7 20 80 20 73 0 80 2 80 20
0 18 7 20 60 20 l60 0 0 2680 0 2680 -7160 0 -7160 0 0 -2660z"/>
</g>
</svg>
